<?xml version="1.0" encoding="iso-8859-1"?>
<!-- Generator: Adobe Illustrator 19.0.0, SVG Export Plug-In . SVG Version: 6.00 Build 0)  -->
<svg version="1.1" id="Capa_1" xmlns="http://www.w3.org/2000/svg" xmlns:xlink="http://www.w3.org/1999/xlink" x="0px" y="0px"
	 viewBox="0 0 435.637 435.637" style="enable-background:new 0 0 435.637 435.637;" xml:space="preserve">
<rect x="201.874" y="354.037" style="fill:#EDAE78;" width="34.4" height="74.4"/>
<rect x="201.874" y="354.037" style="fill:#F9C095;" width="12.8" height="74.4"/>
<rect x="221.874" y="354.037" style="fill:#D69365;" width="13.6" height="74.4"/>
<polygon style="fill:#24BA73;" points="70.674,354.037 133.074,276.437 88.274,276.437 158.674,179.637 113.874,179.637 
	179.474,99.637 139.474,99.637 218.674,7.637 297.874,99.637 257.874,99.637 323.474,179.637 278.674,179.637 349.074,276.437 
	304.274,276.437 366.674,354.037 "/>
<g>
	<polygon style="fill:#1CA35F;" points="88.274,276.437 88.274,276.437 93.074,276.437 93.074,276.437 	"/>
	<polygon style="fill:#1CA35F;" points="257.874,99.637 217.874,99.637 283.474,179.637 323.474,179.637 257.874,99.637 
		297.874,99.637 218.674,7.637 198.674,30.837 	"/>
	<polygon style="fill:#1CA35F;" points="304.274,276.437 264.274,276.437 326.674,354.037 366.674,354.037 	"/>
	<polygon style="fill:#1CA35F;" points="238.674,179.637 309.074,276.437 349.074,276.437 278.674,179.637 	"/>
</g>
<g>
	<polygon style="fill:#36CE82;" points="233.074,24.437 218.674,7.637 139.474,99.637 167.474,99.637 	"/>
	<polygon style="fill:#36CE82;" points="133.074,276.437 70.674,354.037 98.674,354.037 161.074,276.437 	"/>
	<polygon style="fill:#36CE82;" points="116.274,276.437 186.674,179.637 141.874,179.637 207.474,99.637 179.474,99.637 
		113.874,179.637 158.674,179.637 88.274,276.437 	"/>
</g>
<path style="fill:#3A271E;" d="M321.074,284.437h28c4.8,0,8-3.2,8-8c0-2.4-0.8-4-2.4-5.6l-60-82.4h28.8c4.8,0,8-3.2,8-8
	c0-2.4-0.8-4.8-2.4-6.4l-54.4-66.4h23.2c4.8,0,8-3.2,8-8c0-2.4-0.8-4.8-3.2-6.4l-77.6-90.4c-3.2-3.2-8-4-11.2-0.8l-0.8,0.8
	l-79.2,91.2c-3.2,3.2-2.4,8.8,0.8,11.2c1.6,1.6,3.2,1.6,5.6,1.6h22.4l-54.4,67.2c-2.4,3.2-2.4,8.8,0.8,11.2c1.6,0.8,3.2,1.6,4.8,1.6
	h28.8l-61.6,84c-2.4,3.2-1.6,8.8,1.6,11.2c1.6,0.8,3.2,1.6,4.8,1.6h28l-52,64.8c-2.4,3.2-2.4,8.8,0.8,11.2c1.6,0.8,3.2,1.6,4.8,1.6
	h123.2v66.4c0,4.8,3.2,8,8,8h34.4c4.8,0,8-3.2,8-8v-65.6h123.2c4.8,0,8-3.2,8-8c0-1.6-0.8-4-1.6-4.8L321.074,284.437z
	 M227.474,420.437h-18.4v-58.4h18.4V420.437z M235.474,346.037h-148l52-64.8c2.4-3.2,2.4-8.8-0.8-11.2c-1.6-0.8-3.2-1.6-4.8-1.6
	h-28.8l60.8-84c2.4-3.2,1.6-8.8-1.6-11.2c-1.6-0.8-3.2-1.6-4.8-1.6h-28.8l54.4-67.2c2.4-3.2,2.4-8.8-0.8-11.2
	c-1.6-0.8-3.2-1.6-4.8-1.6h-21.6l60.8-71.2l61.6,71.2h-22.4c-4.8,0-8,3.2-8,8c0,1.6,0.8,4,1.6,4.8l54.4,67.2h-28c-4.8,0-8,3.2-8,8
	c0,1.6,0.8,3.2,1.6,4.8l60.8,84h-29.6c-4.8,0-8,3.2-8,8c0,1.6,0.8,4,1.6,4.8l52,64.8H235.474z"/>
<g>
</g>
<g>
</g>
<g>
</g>
<g>
</g>
<g>
</g>
<g>
</g>
<g>
</g>
<g>
</g>
<g>
</g>
<g>
</g>
<g>
</g>
<g>
</g>
<g>
</g>
<g>
</g>
<g>
</g>
</svg>
